Patient4_TMGait_0pt2_02_left_01_GRF.mot
version=1
nRows=58
nColumns=19
inDegrees=no
endheader
time	F1x	F1y	F1z	M1x	M1y	M1z	F2x	F2y	F2z	M2x	M2y	M2z	EC1x	EC1y	EC1z	EC2x	EC2y	EC2z
1.85	-5.1989	1.2268	-1.8582	0.002812	1.1219	2.3275	-14.9905	807.5483	-32.8255	334.0622	47.3171	894.213	-0.0592	0.0182	-0.0073	-0.0462	0.0165	0.9585
1.8732	-3.5281	1.0681	-1.1711	-0.078388	0.64983	1.8107	-18.3253	824.9503	-31.7395	340.9035	47.1535	912.9648	-0.0592	0.0182	-0.0073	-0.0462	0.0165	0.9585
1.8964	-2.1014	0.93991	-0.58389	-0.15609	0.24517	1.39	-21.3499	842.6275	-30.9187	347.5927	47.0327	931.5207	-0.0592	0.0182	-0.0073	-0.0462	0.0165	0.9585
1.9196	-1.0081	0.84998	-0.13278	-0.22449	-0.067842	1.086	-23.5869	857.4036	-30.4964	352.7918	46.9073	946.2977	-0.0592	0.0182	-0.0073	-0.0462	0.0165	0.9585
1.9429	-0.25149	0.79134	0.18328	-0.27737	-0.28939	0.89017	-24.6974	866.35	-30.466	355.3192	46.649	954.0516	-0.0592	0.0182	-0.0073	-0.0462	0.0165	0.9585
1.9661	0.21125	0.74437	0.38267	-0.30851	-0.43282	0.77038	-24.5786	867.8437	-30.7033	354.5831	46.1132	953.057	-0.0592	0.0182	-0.0073	-0.0462	0.0165	0.9585
1.9893	0.44225	0.676	0.48911	-0.31078	-0.51534	0.6719	-23.3647	862.0182	-31.0364	350.7483	45.2068	943.5893	-0.0592	0.0182	-0.0073	-0.0462	0.0165	0.9585
2.0125	0.50834	0.54364	0.52602	-0.27563	-0.55127	0.52334	-21.3504	850.5059	-31.3178	344.6018	43.9275	927.6006	-0.0592	0.0182	-0.0073	-0.0462	0.0165	0.9585
2.0357	0.47119	0.297	0.51341	-0.19134	-0.54936	0.24841	-18.8902	835.6851	-31.4689	337.2209	42.3663	907.8553	-0.0592	0.0182	-0.0073	-0.0462	0.0165	0.9585
2.0589	0.38249	-0.12155	0.46465	-0.04263	-0.51181	-0.22412	-16.2872	819.8771	-31.4824	329.6326	40.6598	887.0258	-0.0592	0.0182	-0.0073	-0.0462	0.0165	0.9585
2.0821	0.28265	-0.76339	0.38703	0.18459	-0.43855	-0.95507	-13.723	804.792	-31.405	322.5857	38.9436	867.0732	-0.0592	0.0182	-0.0073	-0.0462	0.0165	0.9585
2.1054	0.20116	-1.6592	0.28348	0.49754	-0.32699	-1.9783	-11.2535	791.3358	-31.32	316.4734	37.3318	849.0297	-0.0592	0.0182	-0.0073	-0.0462	0.0165	0.9585
2.1286	0.16188	-2.7916	0.1545	0.88796	-0.17353	-3.2718	-8.8392	779.6966	-31.3197	311.3762	35.9011	833.0985	-0.0592	0.0182	-0.0073	-0.0462	0.0165	0.9585
2.1518	0.18836	-4.0594	0.0014268	1.321	0.025028	-4.7129	-6.3782	769.6037	-31.4865	307.1726	34.6868	818.9405	-0.0592	0.0182	-0.0073	-0.0462	0.0165	0.9585
2.175	0.30646	-5.2391	-0.16967	1.7227	0.26743	-6.0399	-3.7468	760.6622	-31.8756	303.6748	33.6857	806.0551	-0.0592	0.0182	-0.0073	-0.0462	0.0165	0.9585
2.1982	0.54374	-5.9401	-0.33989	1.9646	0.53973	-6.8057	-0.84781	752.637	-32.5007	300.7444	32.8622	794.112	-0.0592	0.0182	-0.0073	-0.0462	0.0165	0.9585
2.2214	0.92562	-5.5656	-0.47404	1.8476	0.81034	-6.3294	2.3251	745.5776	-33.3379	298.3476	32.1768	783.1231	-0.0592	0.0182	-0.0073	-0.0462	0.0165	0.9585
2.2446	1.4641	-3.2853	-0.51568	1.0956	1.0184	-3.6675	5.6368	739.7264	-34.3224	296.5227	31.602	773.3778	-0.0592	0.0182	-0.0073	-0.0462	0.0165	0.9585
2.2679	2.1399	1.9466	-0.3793	-0.63931	1.06	2.3633	8.8329	735.085	-35.3662	295.208	31.1379	764.985	-0.0592	0.0182	-0.0073	-0.0462	0.0165	0.9585
2.2911	2.8885	11.3038	0.049203	-3.7472	0.78264	13.0875	11.6247	730.9595	-36.3686	294.0696	30.7949	757.3521	-0.0592	0.0182	-0.0073	-0.0462	0.0165	0.9585
2.3143	3.578	25.8882	0.90772	-8.5935	-0.015284	29.7458	13.7559	725.9228	-37.178	292.4991	30.5312	749.1257	-0.0592	0.0182	-0.0073	-0.0462	0.0165	0.9585
2.3375	3.978	46.3733	2.3404	-15.4011	-1.5698	53.0835	15.0478	718.1477	-37.5941	289.7475	30.2286	738.5231	-0.0592	0.0182	-0.0073	-0.0462	0.0165	0.9585
2.3607	3.7758	72.4964	4.4633	-24.0775	-4.1113	82.7676	15.4452	705.9087	-37.4237	285.1173	29.7263	723.8329	-0.0592	0.0182	-0.0073	-0.0462	0.0165	0.9585
2.3839	2.8107	102.5903	7.3156	-34.0542	-7.7358	116.8684	15.0471	688.0774	-36.5604	278.1517	28.8889	703.9127	-0.0592	0.0182	-0.0073	-0.0462	0.0165	0.9585
2.4071	1.2928	133.8432	10.7193	-44.3861	-12.1624	152.1551	14.092	664.6208	-35.03	268.8353	27.66	678.6966	-0.0592	0.0182	-0.0073	-0.0462	0.0165	0.9585
2.4304	-0.45621	164.0127	14.2686	-54.3361	-16.8163	186.0497	12.8918	636.8575	-32.9827	257.7	26.0798	649.4562	-0.0592	0.0182	-0.0073	-0.0462	0.0165	0.9585
2.4536	-2.2187	192.2765	17.5281	-63.6527	-21.1269	217.6142	11.7025	606.9756	-30.632	245.6334	24.2677	618.336	-0.0592	0.0182	-0.0073	-0.0462	0.0165	0.9585
2.4768	-3.9072	218.5212	20.156	-72.3242	-24.681	246.7404	10.6192	577.1876	-28.1948	233.5364	22.4003	587.5232	-0.0592	0.0182	-0.0073	-0.0462	0.0165	0.9585
2.5	-5.4885	242.8169	21.9659	-80.3922	-27.2643	273.5309	9.5983	549.1624	-25.8952	222.0904	20.7077	558.6699	-0.0592	0.0182	-0.0073	-0.0462	0.0165	0.9585
2.5232	-6.9141	265.2317	22.9626	-87.8831	-28.8737	298.0795	8.5568	523.8553	-23.9312	211.6898	19.4011	532.7075	-0.0592	0.0182	-0.0073	-0.0462	0.0165	0.9585
2.5464	-8.1099	285.7892	23.3066	-94.796	-29.669	320.4055	7.4588	501.5859	-22.4216	202.4775	18.5862	509.9106	-0.0592	0.0182	-0.0073	-0.0462	0.0165	0.9585
2.5696	-9.0161	304.5303	23.2217	-101.1322	-29.8815	340.5282	6.3438	482.1737	-21.3997	194.3984	18.252	490.0339	-0.0592	0.0182	-0.0073	-0.0462	0.0165	0.9585
2.5929	-9.5861	321.667	22.9081	-106.953	-29.722	358.6498	5.3086	465.0563	-20.8418	187.2449	18.3143	472.4475	-0.0592	0.0182	-0.0073	-0.0462	0.0165	0.9585
2.6161	-9.7626	337.5746	22.5053	-112.3787	-29.3347	375.1496	4.4765	449.442	-20.6918	180.7145	18.6515	456.3051	-0.0592	0.0182	-0.0073	-0.0462	0.0165	0.9585
2.6393	-9.4967	352.6167	22.0927	-117.5307	-28.8015	390.3996	3.9708	434.4877	-20.8714	174.4797	19.1267	440.7309	-0.0592	0.0182	-0.0073	-0.0462	0.0165	0.9585
2.6625	-8.7876	367.0086	21.7067	-122.4831	-28.1725	404.6347	3.8999	419.4811	-21.289	168.2606	19.6029	425.004	-0.0592	0.0182	-0.0073	-0.0462	0.0165	0.9585
2.6857	-7.7008	380.8162	21.3472	-127.2612	-27.4778	417.9604	4.3569	403.9247	-21.8486	161.859	19.9512	408.6394	-0.0592	0.0182	-0.0073	-0.0462	0.0165	0.9585
2.7089	-6.3477	394.02	20.982	-131.8608	-26.722	430.4141	5.419	387.4959	-22.4515	155.142	20.0537	391.3407	-0.0592	0.0182	-0.0073	-0.0462	0.0165	0.9585
2.7321	-4.864	406.6311	20.5814	-136.2828	-25.9129	442.0793	7.1292	369.9481	-22.9907	148.0054	19.8039	372.9022	-0.0592	0.0182	-0.0073	-0.0462	0.0165	0.9585
2.7554	-3.4011	418.8709	20.1489	-140.5931	-25.0963	453.2684	9.4724	350.9901	-23.342	140.3281	19.1041	353.0827	-0.0592	0.0182	-0.0073	-0.0462	0.0165	0.9585
2.7786	-2.1029	431.3317	19.7498	-144.9758	-24.376	464.6808	12.354	330.2117	-23.372	131.944	17.8763	331.5181	-0.0592	0.0182	-0.0073	-0.0462	0.0165	0.9585
2.8018	-1.0905	445.0439	19.5159	-149.7602	-23.9147	477.4634	15.5771	307.0806	-22.9558	122.6415	16.0841	307.7185	-0.0592	0.0182	-0.0073	-0.0462	0.0165	0.9585
2.825	-0.45333	461.4203	19.6301	-155.4031	-23.9158	493.1382	18.8228	281.0522	-21.991	112.2048	13.7591	281.1696	-0.0592	0.0182	-0.0073	-0.0462	0.0165	0.9585
2.8482	-0.24779	482.0543	20.2986	-162.4173	-24.5955	513.3858	21.6599	251.7807	-20.4121	100.4962	11.0125	251.5504	-0.0592	0.0182	-0.0073	-0.0462	0.0165	0.9585
2.8714	-0.49445	508.3907	21.7213	-171.2634	-26.1514	539.719	23.6089	219.3394	-18.2214	87.5423	8.0415	218.9436	-0.0592	0.0182	-0.0073	-0.0462	0.0165	0.9585
2.8946	-1.1844	541.3023	24.0562	-182.2064	-28.7305	573.0597	24.2351	184.4097	-15.5167	73.6076	5.1192	184.0076	-0.0592	0.0182	-0.0073	-0.0462	0.0165	0.9585
2.9179	-2.2759	580.6343	27.3851	-195.1627	-32.4004	613.2719	23.2828	148.3783	-12.4804	59.2375	2.5289	148.0844	-0.0592	0.0182	-0.0073	-0.0462	0.0165	0.9585
2.9411	-3.7107	624.9112	31.6675	-209.6068	-37.106	658.8588	20.8122	113.2329	-9.3502	45.2205	0.478	113.0987	-0.0592	0.0182	-0.0073	-0.0462	0.0165	0.9585
2.9643	-5.4406	671.5248	36.6909	-224.6449	-42.6225	707.1349	17.2221	81.1305	-6.3953	32.4159	-0.93537	81.1454	-0.0592	0.0182	-0.0073	-0.0462	0.0165	0.9585
2.9875	-7.4202	717.5201	42.0728	-239.2931	-48.5437	755.0157	13.098	53.7873	-3.8638	21.5082	-1.7107	53.905	-0.0592	0.0182	-0.0073	-0.0462	0.0165	0.9585
3.0107	-9.5508	760.5467	47.3276	-252.8015	-54.3292	799.9749	9.0234	32.1295	-1.9101	12.8666	-1.9382	32.298	-0.0592	0.0182	-0.0073	-0.0462	0.0165	0.9585
3.0339	-11.6131	799.2332	51.9772	-264.7727	-59.3978	840.4028	5.4622	16.2755	-0.56372	6.5386	-1.7797	16.4572	-0.0592	0.0182	-0.0073	-0.0462	0.0165	0.9585
3.0571	-13.2689	832.7571	55.6627	-275.0003	-63.2571	875.1829	2.6781	5.6918	0.25133	2.3133	-1.4196	5.8618	-0.0592	0.0182	-0.0073	-0.0462	0.0165	0.9585
3.0804	-14.1475	860.0829	58.2149	-283.1992	-65.6113	902.977	0.70954	-0.58652	0.66576	-0.19223	-1.0059	-0.44453	-0.0592	0.0182	-0.0073	-0.0462	0.0165	0.9585
3.1036	-13.958	879.6164	59.6324	-288.8846	-66.3734	921.942	-0.53834	-3.6991	0.80954	-1.4318	-0.63045	-3.5921	-0.0592	0.0182	-0.0073	-0.0462	0.0165	0.9585
3.1268	-12.5802	889.5977	59.9918	-291.5106	-65.6009	930.184	-1.2179	-4.7322	0.79408	-1.84	-0.34146	-4.6679	-0.0592	0.0182	-0.0073	-0.0462	0.0165	0.9585
3.15	-10.0648	888.9726	59.362	-290.7632	-63.4049	926.6591	-1.4942	-4.6006	0.70635	-1.7843	-0.15373	-4.5941	-0.0592	0.0182	-0.0073	-0.0462	0.0165	0.9585
3.1732	-6.5961	878.0894	57.7965	-286.7898	-59.9271	911.8616	-1.5144	-4.0094	0.60551	-1.5486	-0.060868	-4.0837	-0.0592	0.0182	-0.0073	-0.0462	0.0165	0.9585
